<?xml version="1.0" standalone="no"?>
<!DOCTYPE svg PUBLIC "-//W3C//DTD SVG 20010904//EN"
 "http://www.w3.org/TR/2001/REC-SVG-20010904/DTD/svg10.dtd">
<svg version="1.0" xmlns="http://www.w3.org/2000/svg"
 width="1024.000000pt" height="1024.000000pt" viewBox="0 0 1024.000000 1024.000000"
 preserveAspectRatio="xMidYMid meet">
<metadata>
Created by potrace 1.11, written by Peter Selinger 2001-2013
</metadata>
<g transform="translate(0.000000,1024.000000) scale(0.100000,-0.100000)"
fill="#000000" stroke="none">
<path d="M1279 10220 c-313 -52 -590 -191 -811 -406 -222 -215 -362 -464 -436
-779 l-26 -110 -3 -3765 c-1 -2289 2 -3787 7 -3820 5 -30 12 -73 16 -95 16
-109 63 -252 126 -384 177 -372 501 -655 898 -785 58 -19 119 -36 135 -39 202
-37 48 -36 3955 -33 2065 1 3766 4 3780 8 14 3 48 9 75 13 28 4 101 22 163 41
466 141 835 493 995 949 37 107 56 188 75 310 4 28 7 1742 7 3810 0 3132 -2
3772 -14 3830 -75 390 -234 665 -536 930 -116 101 -334 219 -510 274 -226 71
153 65 -4025 67 -3580 2 -3770 1 -3871 -16z"/>
</g>
</svg>
